<?xml version="1.0" ?><svg fill="#a2a2a2" width="33.903px" height="33.903px" viewBox="-5.49 0 33.903 33.903" xmlns="http://www.w3.org/2000/svg"><g transform="translate(-614.788 -322.578)"><path d="M626.249,324.578a9.462,9.462,0,1,1-9.461,9.461,9.472,9.472,0,0,1,9.461-9.461m0-2a11.462,11.462,0,1,0,11.462,11.461,11.461,11.461,0,0,0-11.462-11.461Z"/><path d="M630.972,356.481a1.633,1.633,0,0,1-1.138-.461l-3.531-3.406-2.8,3.145a1.639,1.639,0,0,1-2.863-1.09V343.3h2V353.72L625.06,351a1.646,1.646,0,0,1,1.163-.548,1.628,1.628,0,0,1,1.2.46l3.189,3.077V343.3h2v11.541a1.642,1.642,0,0,1-1.64,1.639Z"/></g></svg>