<?xml version="1.0" encoding="iso-8859-1"?>
<!-- Generator: Adobe Illustrator 19.0.0, SVG Export Plug-In . SVG Version: 6.00 Build 0)  -->
<svg version="1.1" id="Layer_1" xmlns="http://www.w3.org/2000/svg" xmlns:xlink="http://www.w3.org/1999/xlink" x="0px" y="0px"
	 viewBox="0 0 512 512" style="enable-background:new 0 0 512 512;" xml:space="preserve" fill="#a2a2a2">
<g>
	<g>
		<path d="M501.611,166.563c5.407-5.27,7.317-13.005,4.984-20.186c-2.334-7.181-8.426-12.317-15.898-13.403L450.2,127.09
			c-0.335-0.049-0.623-0.259-0.773-0.562L431.316,89.83c-3.342-6.771-10.108-10.976-17.657-10.976
			c-7.551,0-14.318,4.206-17.659,10.976l-0.004,0.006c-21.01-17.548-44.618-31.213-70.343-40.684
			c-4.838-1.783-10.201,0.697-11.982,5.534c-1.782,4.837,0.697,10.201,5.534,11.982c25.12,9.248,48.05,22.845,68.268,40.438
			l-9.584,19.419c-0.149,0.304-0.439,0.514-0.773,0.563l-40.498,5.885c-7.472,1.086-13.563,6.222-15.897,13.402
			c-2.333,7.181-0.423,14.916,4.984,20.186l29.305,28.565c0.241,0.235,0.352,0.576,0.296,0.908l-6.919,40.333
			c-1.277,7.441,1.725,14.822,7.832,19.26c3.452,2.509,7.491,3.783,11.558,3.783c3.13,0,6.275-0.754,9.182-2.282l36.222-19.044
			c0.299-0.158,0.655-0.157,0.954,0l36.222,19.044c3.915,2.058,8.261,2.703,12.42,2c0.299,4.7,0.467,9.412,0.467,14.13
			c0,121.351-98.726,220.075-220.075,220.075S23.093,394.61,23.093,273.259c0-40.087,10.752-78.912,31.182-112.982l10.643,10.375
			c1.567,1.527,2.281,3.727,1.911,5.882l-10.67,62.21c-1.64,9.567,2.217,19.052,10.069,24.756c4.436,3.224,9.626,4.862,14.853,4.862
			c4.023,0,8.066-0.971,11.803-2.934l55.869-29.372c1.936-1.017,4.248-1.018,6.184,0l55.869,29.372
			c8.59,4.516,18.806,3.778,26.655-1.926c7.852-5.704,11.709-15.191,10.069-24.756l-10.67-62.21
			c-0.37-2.156,0.345-4.355,1.911-5.883l45.2-44.058c6.948-6.774,9.404-16.715,6.403-25.945
			c-2.998-9.229-10.827-15.832-20.432-17.227l-62.464-9.076c-2.164-0.314-4.034-1.674-5.004-3.635l-6.168-12.498
			c15.324-3.32,31.037-5.028,46.859-5.028c5.154,0,9.333-4.179,9.333-9.333s-4.179-9.333-9.333-9.333
			c-18.719,0-37.306,2.184-55.36,6.469L174.539,14.11C170.248,5.407,161.55,0,151.845,0s-18.402,5.407-22.697,14.109l-27.935,56.602
			c-0.968,1.962-2.838,3.32-5.004,3.635l-62.463,9.078c-9.604,1.396-17.433,7.996-20.432,17.227
			c-2.999,9.229-0.545,19.172,6.405,25.946l20.85,20.324C16.904,184.781,4.427,228.292,4.427,273.259
			C4.427,404.902,111.525,512,243.168,512s238.741-107.098,238.741-238.741c0-16.566-1.721-33.106-5.091-49.189l-4.807-28.033
			c-0.057-0.333,0.054-0.674,0.295-0.91L501.611,166.563z M32.748,113.229c-2.669-2.603-2.066-5.631-1.681-6.812
			c0.383-1.182,1.675-3.987,5.364-4.523l62.463-9.076c8.246-1.197,15.372-6.374,19.057-13.846l27.935-56.601
			c1.65-3.344,4.717-3.704,5.959-3.704c1.243,0,4.309,0.361,5.959,3.704l27.935,56.601c3.688,7.472,10.812,12.649,19.057,13.846
			l62.463,9.076c3.691,0.536,4.981,3.342,5.366,4.523c0.385,1.181,0.988,4.21-1.682,6.812l-45.199,44.058
			c-5.965,5.816-8.687,14.191-7.279,22.403l10.67,62.21c0.631,3.675-1.639,5.77-2.644,6.499c-1.004,0.729-3.698,2.24-6.998,0.505
			l-55.869-29.372c-3.688-1.94-7.732-2.908-11.778-2.908c-4.044,0-8.091,0.969-11.778,2.908l-55.869,29.372
			c-3.299,1.735-5.993,0.224-6.998-0.506c-1.005-0.729-3.274-2.825-2.644-6.499l10.67-62.212c1.409-8.213-1.313-16.587-7.279-22.403
			L32.748,113.229z M459.278,181.762c-4.64,4.524-6.759,11.04-5.663,17.43l4.542,26.482c0.035,0.352,0.085,0.706,0.161,1.059
			c0.051,0.236,0.093,0.474,0.143,0.711l2.072,12.081c0.034,0.204,0.107,0.628-0.408,1.003c-0.514,0.375-0.9,0.174-1.081,0.078
			l-36.222-19.042c-2.869-1.508-6.015-2.262-9.163-2.262c-3.146,0-6.294,0.754-9.162,2.262l-36.222,19.044
			c-0.183,0.097-0.567,0.296-1.081-0.078c-0.515-0.375-0.442-0.8-0.408-1.004l6.92-40.336c1.095-6.389-1.023-12.904-5.664-17.428
			l-29.305-28.565c-0.149-0.144-0.458-0.445-0.26-1.053c0.197-0.607,0.623-0.669,0.828-0.699l40.497-5.885
			c6.415-0.932,11.957-4.959,14.828-10.772l12.712-25.758c0.035-0.07,0.071-0.139,0.103-0.209l5.295-10.729
			c0.091-0.185,0.282-0.572,0.921-0.572s0.829,0.387,0.92,0.572l18.112,36.697c2.871,5.812,8.412,9.839,14.826,10.771l40.498,5.885
			c0.205,0.03,0.632,0.092,0.829,0.699s-0.112,0.907-0.26,1.053L459.278,181.762z"/>
	</g>
</g>
<g>
	<g>
		<path d="M389.408,325.292c-1.751-1.751-4.124-2.734-6.6-2.734H197.087c-5.153,0-9.331,4.179-9.331,9.333
			c0,56.349,45.843,102.193,102.193,102.193s102.193-45.843,102.193-102.193C392.141,329.416,391.158,327.042,389.408,325.292z
			 M289.948,415.418c-42.904,0-78.356-32.514-83.01-74.195h166.019C368.304,382.904,332.852,415.418,289.948,415.418z"/>
	</g>
</g>
<g>
	<g>
		<circle cx="288.13" cy="48.58" r="9.333"/>
	</g>
</g>
<g>
</g>
<g>
</g>
<g>
</g>
<g>
</g>
<g>
</g>
<g>
</g>
<g>
</g>
<g>
</g>
<g>
</g>
<g>
</g>
<g>
</g>
<g>
</g>
<g>
</g>
<g>
</g>
<g>
</g>
</svg>
