<?xml version="1.0" encoding="iso-8859-1"?>
<!-- Generator: Adobe Illustrator 19.0.0, SVG Export Plug-In . SVG Version: 6.00 Build 0)  -->
<svg version="1.1" id="Layer_1" xmlns="http://www.w3.org/2000/svg" xmlns:xlink="http://www.w3.org/1999/xlink" x="0px" y="0px"
	 viewBox="0 0 512 512" style="enable-background:new 0 0 512 512;" xml:space="preserve" fill="#a2a2a2">
<g>
	<g>
		<path d="M255.684,0c-58.838,0-115.573,20.16-161.05,56.997C89.18,48.54,84.99,42.447,83.589,40.428
			c-1.869-2.694-4.941-4.3-8.219-4.3c-3.278,0-6.35,1.607-8.219,4.3c-5.479,7.891-53.531,77.988-53.531,108.811
			c0,34.05,27.702,61.751,61.751,61.751s61.751-27.702,61.751-61.751c0-18.279-16.9-50.37-31.798-75.11
			c42.235-34.948,95.294-54.114,150.361-54.114c130.124,0,235.984,105.862,235.984,235.984S385.806,491.984,255.684,491.984
			c-60.059,0-117.281-22.575-161.126-63.568c-43.635-40.794-70.005-95.958-74.251-155.329c-0.394-5.512-5.184-9.687-10.696-9.267
			c-5.513,0.394-9.662,5.182-9.267,10.696c4.607,64.419,33.212,124.269,80.544,168.521C128.456,487.509,190.532,512,255.684,512
			c141.158,0,255.999-114.84,255.999-256C511.682,114.84,396.842,0,255.684,0z M117.106,149.24
			c0,23.013-18.723,41.736-41.736,41.736c-23.013,0-41.736-18.723-41.736-41.736c0-16.053,23.025-56.551,41.737-85.176
			c2.605,3.984,8.565,13.577,8.927,14.057C100.678,104.67,117.106,135.668,117.106,149.24z"/>
	</g>
</g>
<g>
	<g>
		<path d="M212.56,136.431c-23.943,0-43.424,19.481-43.424,43.424c0,5.528,4.479,10.007,10.007,10.007s10.007-4.479,10.007-10.007
			c0-12.908,10.501-23.409,23.409-23.409s23.409,10.501,23.409,23.409c0,5.528,4.479,10.007,10.007,10.007
			s10.007-4.479,10.007-10.007C255.984,155.912,236.504,136.431,212.56,136.431z"/>
	</g>
</g>
<g>
	<g>
		<path d="M381.584,136.431c-23.944,0-43.425,19.481-43.425,43.424c0,5.528,4.479,10.007,10.007,10.007s10.007-4.479,10.007-10.007
			c0-12.908,10.502-23.409,23.411-23.409c12.908,0,23.409,10.501,23.409,23.409c0,5.528,4.479,10.007,10.007,10.007
			c5.528,0,10.007-4.479,10.007-10.007C425.008,155.912,405.527,136.431,381.584,136.431z"/>
	</g>
</g>
<g>
	<g>
		<path d="M391.048,311.593H191.902c-5.528,0-10.007,4.481-10.007,10.007c0,60.423,49.157,109.581,109.581,109.581
			s109.58-49.157,109.58-109.58C401.056,316.072,396.577,311.593,391.048,311.593z M291.475,411.166
			c-46.006,0-84.02-34.864-89.011-79.558h178.021C375.496,376.302,337.481,411.166,291.475,411.166z"/>
	</g>
</g>
<g>
	<g>
		<circle cx="10.325" cy="237.508" r="10.007"/>
	</g>
</g>
<g>
</g>
<g>
</g>
<g>
</g>
<g>
</g>
<g>
</g>
<g>
</g>
<g>
</g>
<g>
</g>
<g>
</g>
<g>
</g>
<g>
</g>
<g>
</g>
<g>
</g>
<g>
</g>
<g>
</g>
</svg>
